<svg xmlns="http://www.w3.org/2000/svg" viewBox="0 0 512 512" fill="none">
  <defs>
    <linearGradient id="flame" x1="0.5" y1="1" x2="0.5" y2="0">
      <stop offset="0%" stop-color="#ff6b2b"/>
      <stop offset="50%" stop-color="#ff8c42"/>
      <stop offset="100%" stop-color="#ffd166"/>
    </linearGradient>
  </defs>
  <!-- Outer flame -->
  <path d="M256 480c-88 0-160-72-160-160 0-72 48-144 96-200 8-10 24-4 22 8-8 48 16 88 48 112 0-80 48-160 96-208 8-8 22-2 20 10-8 64 16 128 48 168 40 48 56 88 56 110 0 88-72 160-160 160h-66z"
        fill="url(#flame)" opacity="0.9"/>
  <!-- Inner flame (brighter core) -->
  <path d="M256 480c-48 0-88-40-88-88 0-40 24-80 56-120 4-6 14-2 12 4-4 32 12 56 32 72 0-48 28-96 56-128 4-6 14-2 12 6-4 40 12 80 32 104 20 28 32 48 32 62 0 48-40 88-88 88h-56z"
        fill="#ffe0a0" opacity="0.85"/>
</svg>
